
<svg width="90" height="52" viewBox="0 0 90 52" fill="none" xmlns="http://www.w3.org/2000/svg">
<g clip-path="url(#clip0_931_466)">
<path d="M7.37732 33.7538C6.6174 36.5185 6.82935 38.8232 8.01318 40.668C9.197 42.5127 11.1795 43.8008 13.9607 44.5322C14.3823 44.6401 14.8112 44.7195 15.2441 44.7697C15.0114 46.8017 16.0195 49.1692 17.9115 51.4387C15.843 51.5103 13.7747 51.2919 11.7701 50.7903C9.21243 50.1318 6.85915 48.8751 4.91533 47.1297C2.95716 45.4012 1.48859 43.2125 0.650467 40.7735C-0.194752 38.2602 -0.212846 35.5333 0.596187 32.5927C1.27598 30.1196 2.62394 27.6478 4.64006 25.1772C6.85537 22.5344 9.30901 20.0893 11.9717 17.871C14.0913 16.1117 16.2767 14.4542 18.528 12.8984C21.0559 13.9389 22.9674 15.3904 23.9056 17.0454C23.4365 17.347 22.9673 17.6599 22.4982 17.9766C20.142 19.5374 17.8805 21.2291 15.7248 23.0434C13.7456 24.6441 11.9351 26.4323 10.3201 28.3817C8.97437 29.9596 7.97311 31.7875 7.37732 33.7538Z" fill="#6366F1"/>
<path d="M18.5398 12.8984C19.3385 12.348 20.1488 11.8127 20.963 11.2924C23.862 9.39727 26.8647 7.65675 29.958 6.07855C32.3682 4.78242 34.8671 3.64877 37.437 2.68559C39.5462 1.93159 40.9601 1.6501 41.6786 1.84112C42.5417 2.04708 43.3048 2.5373 43.8382 3.22846C44.1323 3.56324 44.3368 3.96347 44.4335 4.3936C44.5303 4.82373 44.5162 5.27044 44.3926 5.69401C44.2045 6.25361 43.8799 6.76064 43.4466 7.17184C42.7435 7.75583 41.9159 8.18075 41.0234 8.41592C39.3743 8.95244 37.7586 9.58183 36.1847 10.3009C34.197 11.1831 32.0181 12.2889 29.6478 13.6185C27.748 14.6514 25.8379 15.795 23.9174 17.0491C22.9791 15.3903 21.0755 13.9389 18.5398 12.8984Z" fill="#FB923C"/>
<path d="M48.1416 37.4076C47.7927 38.6642 46.7213 40.034 44.9275 41.5168C42.8347 43.1897 40.5563 44.63 38.1347 45.8108C35.324 47.2101 32.3983 48.379 29.3878 49.3056C26.3727 50.2785 23.2643 50.953 20.1098 51.3187C19.3577 51.3904 18.6287 51.4356 17.9115 51.4545C16.0078 49.1925 15.0114 46.8174 15.244 44.7854C16.6257 44.9186 18.0191 44.8857 19.3925 44.6874C21.7404 44.3712 24.0532 43.8449 26.3016 43.1153C28.7619 42.3646 31.1717 41.4656 33.517 40.4236C35.6644 39.4426 37.7273 38.2954 39.6856 36.9929C41.4949 35.8167 42.7873 34.6555 43.5627 33.5095C42.2858 33.4768 40.6923 33.3863 38.7822 33.238C36.872 33.0897 34.8947 32.8987 32.8501 32.665C30.8573 32.4463 29.0479 32.2239 27.4221 31.9977C26.2358 31.8511 25.0582 31.6447 23.8939 31.3794C22.4077 30.9924 21.3363 30.3125 20.6798 29.3399C20.0723 28.3823 19.8707 27.5303 20.0749 26.7838C20.2422 26.237 20.6181 25.7731 21.1256 25.487C21.8132 25.1115 22.613 24.9783 23.3899 25.11C24.4832 25.2457 25.9307 25.3978 27.7323 25.5662C29.5985 25.7019 31.528 25.8803 33.5209 26.1015C35.5758 26.2875 37.451 26.476 39.1466 26.667C40.4609 26.7988 41.765 27.0129 43.0509 27.3079C45.5452 27.9588 47.1917 29.1627 47.9904 30.9195C48.8098 32.6361 48.8602 34.7988 48.1416 37.4076Z" fill="#FBBF24"/>
<path d="M88.4215 19.319C87.7442 21.7871 86.395 24.2577 84.3737 26.7307C82.1594 29.3744 79.7057 31.8196 77.042 34.0369C75.8634 35.0247 74.6627 35.9759 73.4401 36.8908C72.4166 35.2584 70.3927 33.9314 67.7679 33.0756C69.6987 31.7435 71.5442 30.3411 73.3044 28.8683C75.2835 27.2686 77.0928 25.4803 78.7053 23.53C80.0547 21.9525 81.0575 20.1229 81.6519 18.1541C82.4119 15.3895 82.1986 13.086 81.0122 11.2438C79.8258 9.4015 77.8446 8.10966 75.0685 7.36824C73.6314 6.99627 71.8221 6.94977 69.6405 7.22875L69.4002 7.26268C67.543 5.14019 66.4807 2.91215 66.4729 0.944228C67.2923 0.805996 68.1104 0.690385 68.9271 0.597393C71.7141 0.276821 74.5379 0.454415 77.2591 1.12142C79.8166 1.77856 82.1699 3.034 84.1139 4.77828C86.0724 6.50651 87.541 8.69528 88.3788 11.1344C89.2189 13.6528 89.2331 16.3809 88.4215 19.319Z" fill="#FBBF24"/>
<path d="M45.9706 24.5943C43.4737 23.9458 41.8259 22.742 41.0272 20.9826C40.2156 19.2761 40.1691 17.1159 40.8876 14.5021C41.2366 13.2454 42.3079 11.8757 44.1018 10.3928C46.2067 8.71956 48.4967 7.27936 50.9294 6.09885C53.7392 4.69862 56.6651 3.53084 59.6763 2.60787C61.9009 1.89261 64.1764 1.33694 66.4846 0.945312C66.4846 2.91323 67.5547 5.14128 69.4118 7.26376C67.1475 7.58206 64.9169 8.09683 62.747 8.80191C60.2867 9.55261 57.8769 10.4516 55.5316 11.4937C53.3807 12.4605 51.3139 13.5952 49.3514 14.8866C47.5421 16.0628 46.2497 17.224 45.4743 18.3701C46.7486 18.4002 48.3421 18.4894 50.2548 18.6377C52.1675 18.786 54.1449 18.977 56.1869 19.2108C58.1797 19.4294 59.989 19.6518 61.6149 19.878C62.8029 20.0233 63.982 20.2309 65.1469 20.5001C66.6306 20.8846 67.702 21.5632 68.3611 22.5359C68.9685 23.4934 69.1701 24.3454 68.9659 25.0919C68.7971 25.6389 68.4218 26.1035 67.9152 26.3925C67.227 26.7663 66.4279 26.8993 65.651 26.7695C64.5576 26.6388 63.1089 26.4868 61.3047 26.3134C59.4437 26.1776 57.5154 26.0005 55.52 25.7818C53.4651 25.5933 51.5898 25.4035 49.8942 25.2125C48.574 25.089 47.2634 24.8824 45.9706 24.5943Z" fill="#6366F1"/>
<path d="M73.4402 36.8909C71.6929 38.2029 69.9003 39.4445 68.0626 40.6157C65.1646 42.5138 62.1632 44.258 59.0715 45.8408C56.6607 47.1304 54.1618 48.2577 51.5924 49.2149C49.4833 49.9689 48.0694 50.2492 47.3508 50.0556C46.4894 49.8526 45.7265 49.3665 45.1912 48.6796C44.8971 48.3448 44.6926 47.9446 44.5959 47.5145C44.4992 47.0843 44.5132 46.6376 44.6368 46.214C44.8242 45.6541 45.1489 45.1469 45.5828 44.7362C46.2855 44.1524 47.1134 43.7287 48.0061 43.4959C49.6538 42.9589 51.2681 42.3295 52.8409 41.6109C54.8337 40.7288 57.014 39.6229 59.3816 38.2934C61.7389 37.0116 64.1182 35.5589 66.5195 33.9353C66.9382 33.6563 67.3569 33.3773 67.7679 33.0908C70.3927 33.9315 72.4166 35.2585 73.4402 36.8909Z" fill="#FB923C"/>
</g>
<defs>
<clipPath id="clip0_931_466">
<rect width="89" height="51" fill="white" transform="translate(0.0146484 0.454102)"/>
</clipPath>
</defs>
</svg>
